<?xml version="1.0" encoding="UTF-8"?>
<svg width="500px" height="500px" viewBox="0 0 500 500" version="1.1" xmlns="http://www.w3.org/2000/svg" xmlns:xlink="http://www.w3.org/1999/xlink">
    <!-- Generator: Sketch 47 (45396) - http://www.bohemiancoding.com/sketch -->
    <title>Artboard</title>
    <desc>Created with Sketch.</desc>
    <defs></defs>
    <g id="Page-1" stroke="none" stroke-width="1" fill="none" fill-rule="evenodd">
        <g id="Artboard" fill-rule="nonzero" fill="#5A6169">
            <g id="BasicsB" transform="translate(130.000000, 62.500000)">
                <path d="M0,375 L0,0 L127.87657,0 C147.576808,0 164.225873,3.138044 177.824267,9.414226 C191.422663,15.690408 202.492985,23.7534375 211.035565,33.6035565 C219.578145,43.4536755 225.81065,54.3496613 229.733262,66.291841 C233.655878,78.2340208 235.617155,89.8709335 235.617155,101.202929 C235.617155,113.057939 233.830212,123.823173 230.256275,133.498954 C226.68234,143.174734 221.975273,151.673603 216.134938,158.995816 C210.2946,166.318028 203.495505,172.289029 195.737448,176.908996 C187.97939,181.528963 179.829192,184.710591 171.28661,186.453975 C179.131838,188.19736 187.1077,191.42257 195.214435,196.129707 C203.32117,200.836842 210.556105,206.851427 216.919455,214.17364 C223.282807,221.495853 228.425713,230.038305 232.348328,239.801255 C236.27094,249.564205 238.232218,260.54736 238.232218,272.751045 C238.232218,284.25738 236.27094,296.068627 232.348328,308.185147 C228.425713,320.301665 222.10604,331.241235 213.389123,341.004185 C204.672202,350.767135 193.427545,358.873747 179.654813,365.324268 C165.88208,371.774787 149.233013,375 129.707112,375 L0,375 Z" id="B"></path>
            </g>
        </g>
    </g>
</svg>