<svg width="500px" height="500px" viewBox="0 0 500 500" version="1.1" xmlns="http://www.w3.org/2000/svg" xmlns:xlink="http://www.w3.org/1999/xlink">

  {% if not hide_clip %}
  <g class="clip-outline" fill="white">
    <path d="M-0.499999119,-0.499999119 L499.499999,-0.499999119 L499.499999,499.499999 L-0.499999119,499.499999 L-0.499999119,-0.499999119 Z M427.513386,427.518235 C497.795845,252.920025 427.513386,72.241497 427.513386,72.2366483 C252.920025,1.95418963 72.2366483,72.2366483 72.2366483,72.2366483 C1.95418963,246.83001 72.2366483,427.518235 72.2366483,427.518235 C72.2366483,427.518235 252.920025,497.800693 427.513386,427.518235 Z"></path>
  </g>
  {% endif %}

  {% if not hide_outline %}
  <g class="shape-outline" stroke="none" stroke-width="1" fill="#F9D9A8" fill-rule="evenodd">
    <g id="Cushion">
        <path d="M427.513386,427.518235 C252.920025,497.800693 72.2366483,427.518235 72.2366483,427.518235 C72.2366483,427.518235 1.95418963,246.83001 72.2366483,72.2366483 C72.2366483,72.2366483 252.920025,1.95418963 427.513386,72.2366483 C427.513386,72.241497 497.795845,252.920025 427.513386,427.518235 Z"></path>
    </g>
  </g>
  {% endif %}

</svg>
