<svg width="500px" height="600px" viewBox="0 0 500 600" version="1.1" xmlns="http://www.w3.org/2000/svg" xmlns:xlink="http://www.w3.org/1999/xlink">

  {% if not hide_clip %}
  <g class="clip-outline" fill="white">
    <path d="M0,0 L500,0 L500,600 L0,600 L0,0 Z M251.444907,25 C181.448524,25 120.553222,81.6284122 89.1140042,165.283691 C89.1140042,165.283691 11.286909,332.31302 250.16484,574.463849 C489.04762,332.172407 411.220524,163.150246 411.220524,163.150246 C379.776458,79.4901187 321.44129,25 251.444907,25 Z"></path>
  </g>
  {% endif %}

  {% if not hide_outline %}
  <g class="shape-outline" stroke="none" stroke-width="1" fill="#ED9FA8" fill-rule="evenodd">
    <g id="Pear">
      <path d="M251.444907,25 C181.448524,25 120.553222,81.6284122 89.1140042,165.283691 C89.1140042,165.283691 11.286909,332.31302 250.16484,574.463849 C489.04762,332.172407 411.220524,163.150246 411.220524,163.150246 C379.776458,79.4901187 321.44129,25 251.444907,25 Z"></path>
    </g>
  </g>
  {% endif %}

</svg>
