<svg version="1.1" xmlns="http://www.w3.org/2000/svg" xmlns:xlink="http://www.w3.org/1999/xlink" x="0px" y="0px"
	 width="160px" height="60px" viewBox="0 0 160 60" enable-background="new 0 0 160 60" xml:space="preserve">
<rect fill="#ffffff" width="160" height="60"/>
<g>
	<path fill="#212121" d="M36.732,16.541v20.561h12.293v4.663h-17.84V16.541H36.732z"/>
	<path fill="#212121" d="M51.887,24.012c0.565-1.613,1.378-3.02,2.438-4.222c1.06-1.201,2.361-2.143,3.904-2.826
		c1.542-0.683,3.279-1.025,5.211-1.025c1.954,0,3.698,0.342,5.229,1.025c1.53,0.683,2.826,1.625,3.886,2.826
		c1.06,1.202,1.873,2.609,2.437,4.222c0.564,1.614,0.85,3.362,0.85,5.247c0,1.836-0.286,3.55-0.85,5.141
		c-0.564,1.588-1.377,2.973-2.437,4.15s-2.355,2.102-3.886,2.772c-1.531,0.672-3.274,1.007-5.229,1.007
		c-1.932,0-3.669-0.335-5.211-1.007c-1.543-0.671-2.844-1.595-3.904-2.772c-1.059-1.178-1.872-2.562-2.438-4.15
		c-0.564-1.591-0.848-3.305-0.848-5.141C51.04,27.375,51.323,25.626,51.887,24.012z M56.957,32.35
		c0.247,1.002,0.642,1.903,1.183,2.703c0.542,0.8,1.249,1.443,2.12,1.926c0.872,0.483,1.931,0.725,3.18,0.725
		c1.249,0,2.309-0.241,3.18-0.725c0.869-0.482,1.578-1.126,2.12-1.926c0.54-0.8,0.935-1.701,1.183-2.703
		c0.248-1.001,0.37-2.031,0.37-3.091c0-1.106-0.123-2.178-0.37-3.215c-0.248-1.036-0.643-1.961-1.183-2.773
		c-0.542-0.812-1.251-1.46-2.12-1.943c-0.872-0.482-1.932-0.725-3.18-0.725c-1.249,0-2.308,0.242-3.18,0.725
		c-0.872,0.483-1.578,1.13-2.12,1.943c-0.542,0.812-0.936,1.738-1.183,2.773c-0.247,1.037-0.371,2.108-0.371,3.215
		C56.586,30.318,56.71,31.349,56.957,32.35z"/>
	<path fill="#212121" d="M94.563,41.57c-1.201,0.507-2.415,0.759-3.64,0.759c-1.931,0-3.668-0.335-5.209-1.007
		c-1.543-0.671-2.845-1.595-3.905-2.772c-1.06-1.178-1.872-2.562-2.437-4.15c-0.566-1.591-0.848-3.305-0.848-5.141
		c0-1.884,0.282-3.633,0.848-5.247c0.565-1.613,1.377-3.02,2.437-4.222c1.061-1.201,2.362-2.143,3.905-2.826
		c1.541-0.683,3.278-1.025,5.209-1.025c1.296,0,2.55,0.194,3.764,0.583c1.212,0.389,2.307,0.96,3.285,1.714
		c0.978,0.753,1.783,1.684,2.42,2.791c0.635,1.107,1.024,2.379,1.165,3.815h-5.299c-0.329-1.413-0.966-2.473-1.906-3.18
		c-0.943-0.707-2.086-1.06-3.429-1.06c-1.248,0-2.309,0.242-3.179,0.725c-0.872,0.483-1.577,1.13-2.12,1.943
		c-0.541,0.812-0.937,1.738-1.183,2.773c-0.247,1.037-0.371,2.108-0.371,3.215c0,1.06,0.124,2.09,0.371,3.091
		c0.246,1.002,0.642,1.903,1.183,2.703c0.543,0.8,1.248,1.443,2.12,1.926c0.87,0.483,1.931,0.725,3.179,0.725
		c1.838,0,3.256-0.466,4.258-1.396c1.001-0.932,1.584-2.28,1.748-4.046h-5.581v-4.134h10.599v13.637h-3.533l-0.564-2.861
		C96.859,40.175,95.765,41.065,94.563,41.57z"/>
	<path fill="#212121" d="M106.188,24.012c0.564-1.613,1.377-3.02,2.437-4.222c1.061-1.201,2.361-2.143,3.905-2.826
		c1.541-0.683,3.278-1.025,5.209-1.025c1.956,0,3.698,0.342,5.23,1.025c1.53,0.683,2.825,1.625,3.886,2.826
		c1.059,1.202,1.872,2.609,2.437,4.222c0.564,1.614,0.849,3.362,0.849,5.247c0,1.836-0.284,3.55-0.849,5.141
		c-0.564,1.588-1.378,2.973-2.437,4.15c-1.061,1.178-2.355,2.102-3.886,2.772c-1.532,0.672-3.274,1.007-5.23,1.007
		c-1.931,0-3.668-0.335-5.209-1.007c-1.544-0.671-2.845-1.595-3.905-2.772c-1.06-1.178-1.872-2.562-2.437-4.15
		c-0.566-1.591-0.849-3.305-0.849-5.141C105.339,27.375,105.621,25.626,106.188,24.012z M111.257,32.35
		c0.246,1.002,0.642,1.903,1.183,2.703c0.543,0.8,1.248,1.443,2.12,1.926c0.87,0.483,1.931,0.725,3.179,0.725
		s2.309-0.241,3.181-0.725c0.87-0.482,1.577-1.126,2.12-1.926c0.541-0.8,0.936-1.701,1.183-2.703
		c0.247-1.001,0.371-2.031,0.371-3.091c0-1.106-0.124-2.178-0.371-3.215c-0.247-1.036-0.642-1.961-1.183-2.773
		c-0.543-0.812-1.25-1.46-2.12-1.943c-0.872-0.482-1.933-0.725-3.181-0.725s-2.309,0.242-3.179,0.725
		c-0.872,0.483-1.577,1.13-2.12,1.943c-0.541,0.812-0.937,1.738-1.183,2.773c-0.247,1.037-0.371,2.108-0.371,3.215
		C110.886,30.318,111.01,31.349,111.257,32.35z"/>
</g>
</svg>
