<svg width="510" height="94" viewBox="0 0 510 94" xmlns="http://www.w3.org/2000/svg"><title>g10</title><g fill="none" fill-rule="evenodd"><path fill="#000" fill-rule="nonzero" d="M29.957 15.793H4.613V.24h53.76L26.98 53.33h29.28V67.92H.006M92.26.24h45.31v15.553h-28.894V26.64h22.944v14.785h-22.944v11.903h28.895V67.92H92.26M196.418 36.336c5.76 0 9.76-.925 12-2.784 2.24-1.855 3.36-4.383 3.36-7.583s-1.12-5.727-3.36-7.586c-2.24-1.855-6.24-2.784-12-2.784H192v20.736h4.418zM175.586.24h16.03c12.034 0 21.154 2.016 27.362 6.05 6.207 4.03 9.31 10.59 9.31 19.68 0 8.062-2.75 14.24-8.254 18.526-5.505 4.29-13.25 6.432-23.232 6.432h-4.8v16.99h-16.416V.242zM265.583 25.08h16.702v25.44h24.578V25.08h16.703v67.68h-16.703V65.978h-24.578V92.76h-16.702M356.973 25.08h18.142l14.016 26.974 14.403-26.973h17.278l-23.613 43.87v23.81h-16.514V69.816M474.186 60.216c5.76 0 9.76-.85 12-2.544 2.24-1.696 3.36-4.144 3.36-7.344s-1.12-5.648-3.36-7.344c-2.24-1.695-6.24-2.544-12-2.544h-3.456v19.776h3.456zm35.81 32.544h-18.337l-11.81-18.625c-.896.065-1.776.112-2.637.144-.866.032-1.746.048-2.642.048h-3.84V92.76h-16.413V25.08h15.07c6.015 0 11.312.465 15.887 1.392 4.576.93 8.4 2.4 11.475 4.416 3.07 2.017 5.39 4.625 6.957 7.824 1.567 3.2 2.35 7.072 2.35 11.616s-.91 8.416-2.732 11.615c-1.827 3.202-4.464 5.794-7.923 7.776l14.593 23.04z"/><path d="M229.057 89.76H.773M265.583 4.24h244.414" stroke="#000" stroke-width="6.667"/></g></svg>